<svg width="200" height="65" viewBox="0 0 200 65" fill="none" xmlns="http://www.w3.org/2000/svg">
<path d="M87.0319 25.0226H82.3484V40.4419C82.3484 41.3318 82.1504 41.991 81.7545 42.4197C81.5598 42.6305 81.3218 42.7967 81.0569 42.9069C80.792 43.0171 80.5063 43.0688 80.2196 43.0583C79.9285 43.0683 79.6388 43.0152 79.3702 42.9028C79.1016 42.7904 78.8605 42.6212 78.6634 42.4069C78.2631 41.9726 78.063 41.3162 78.063 40.4377V25.0226H73.3795C72.6451 25.0226 72.1022 24.8608 71.7424 24.5372C71.5713 24.3682 71.4358 24.1665 71.344 23.9441C71.2521 23.7217 71.2058 23.4832 71.2078 23.2426C71.2098 23.0021 71.26 22.7643 71.3555 22.5435C71.451 22.3227 71.5898 22.1233 71.7637 21.9571C72.137 21.6377 72.6756 21.4781 73.3795 21.4781H87.0319C87.7749 21.4781 88.3284 21.642 88.6882 21.9698C88.8669 22.1326 89.008 22.3323 89.1018 22.555C89.1955 22.7778 89.2396 23.0184 89.231 23.2599C89.2393 23.5001 89.1943 23.7392 89.0993 23.96C89.0044 24.1809 88.8618 24.378 88.6818 24.5372C88.3156 24.8608 87.7642 25.0226 87.0319 25.0226Z" fill="black"/>
<path d="M100.672 35.9969H92.9395C92.9306 36.8206 93.1166 37.6347 93.4823 38.3727C93.7816 39.0015 94.2555 39.5309 94.8473 39.8978C95.4392 40.2647 96.1241 40.4536 96.8204 40.442C97.2574 40.4465 97.693 40.3906 98.1147 40.2759C98.5178 40.1602 98.901 39.9844 99.2516 39.7543C99.6077 39.5264 99.9464 39.2724 100.265 38.9943C100.576 38.7247 100.977 38.3578 101.468 37.8937C101.717 37.7058 102.025 37.6136 102.336 37.634C102.695 37.6173 103.047 37.7358 103.322 37.9661C103.449 38.086 103.549 38.2324 103.614 38.395C103.678 38.5576 103.707 38.7324 103.697 38.9071C103.667 39.3551 103.52 39.7874 103.271 40.161C102.939 40.6949 102.509 41.1615 102.004 41.5362C101.361 42.0171 100.641 42.3863 99.8753 42.6283C98.9232 42.9311 97.9278 43.0749 96.929 43.0541C94.3885 43.0541 92.4144 42.3303 91.0065 40.8826C89.5986 39.435 88.8939 37.4708 88.8925 34.99C88.8822 33.8847 89.0585 32.7857 89.4141 31.7392C89.7344 30.7853 90.2524 29.9098 90.9341 29.1697C91.6188 28.4419 92.4605 27.8798 93.3951 27.5262C94.4331 27.1328 95.5359 26.9385 96.6458 26.9535C98.19 26.9535 99.5148 27.2792 100.62 27.9307C101.67 28.5256 102.531 29.4044 103.105 30.4661C103.639 31.4333 103.923 32.5185 103.931 33.6232C103.931 34.6167 103.647 35.261 103.079 35.5562C102.512 35.8514 101.709 35.9983 100.672 35.9969ZM92.9395 33.7531H100.107C100.009 32.4006 99.6447 31.3893 99.0131 30.7195C98.6913 30.3857 98.3023 30.1241 97.8718 29.952C97.4413 29.7799 96.9792 29.7012 96.516 29.721C96.0618 29.7071 95.6099 29.7911 95.1911 29.9674C94.7724 30.1438 94.3965 30.4082 94.0891 30.7429C93.4561 31.4184 93.0729 32.4218 92.9395 33.7531Z" fill="black"/>
<path d="M107.478 27.3389H107.903V24.9631C107.903 24.3244 107.918 23.8262 107.952 23.4729C107.975 23.1447 108.072 22.8259 108.236 22.5404C108.395 22.2655 108.625 22.0377 108.902 21.8805C109.197 21.7103 109.532 21.6228 109.873 21.6271C110.382 21.6313 110.87 21.8336 111.233 22.1913C111.499 22.4346 111.678 22.7572 111.746 23.111C111.829 23.6211 111.865 24.1377 111.855 24.6544V27.3474H113.324C113.784 27.3161 114.24 27.4581 114.601 27.7455C114.744 27.8732 114.858 28.0306 114.934 28.2067C115.01 28.3828 115.047 28.5734 115.042 28.7652C115.059 28.9937 115.008 29.2223 114.894 29.4212C114.78 29.6202 114.609 29.7802 114.403 29.8807C113.833 30.1213 113.217 30.2305 112.6 30.2001H111.861V37.468C111.854 37.9443 111.876 38.4206 111.927 38.8943C111.955 39.1944 112.076 39.4781 112.274 39.7054C112.463 39.9183 112.77 40.0162 113.194 40.0162C113.51 40.0057 113.826 39.9651 114.135 39.8949C114.439 39.824 114.75 39.7826 115.063 39.7714C115.223 39.7746 115.381 39.8101 115.528 39.876C115.674 39.9418 115.806 40.0366 115.914 40.1546C116.04 40.2775 116.14 40.425 116.206 40.588C116.272 40.7511 116.304 40.926 116.3 41.1019C116.3 41.7406 115.951 42.2281 115.257 42.5645C114.563 42.9008 113.553 43.0711 112.259 43.0711C111.022 43.0711 110.088 42.8583 109.449 42.4495C108.828 42.0559 108.38 41.4399 108.197 40.7273C107.976 39.7636 107.876 38.7758 107.901 37.7873V30.1915H107.38C106.913 30.2212 106.451 30.0763 106.085 29.7849C105.94 29.6571 105.824 29.4986 105.746 29.3209C105.668 29.1432 105.631 28.9506 105.636 28.7567C105.632 28.5621 105.672 28.3691 105.753 28.1923C105.835 28.0156 105.956 27.8599 106.107 27.737C106.422 27.4716 106.879 27.3389 107.478 27.3389Z" fill="black"/>
<path d="M121.681 37.3594V40.6591C121.681 41.461 121.493 42.062 121.117 42.4623C120.934 42.6586 120.712 42.8137 120.465 42.9172C120.217 43.0207 119.95 43.0703 119.682 43.0626C119.418 43.0701 119.156 43.0197 118.914 42.9148C118.671 42.81 118.455 42.6533 118.279 42.4559C117.911 42.0493 117.726 41.451 117.728 40.6591V29.655C117.728 27.8796 118.367 26.9918 119.644 26.9918C120.3 26.9918 120.772 27.199 121.062 27.6135C121.351 28.0279 121.511 28.641 121.541 29.4528C121.917 28.7615 122.409 28.1394 122.995 27.6135C123.493 27.199 124.157 26.9918 124.987 26.9918C125.833 26.9958 126.664 27.2094 127.406 27.6135C128.188 28.0293 128.578 28.58 128.577 29.2654C128.579 29.6929 128.417 30.1048 128.123 30.415C127.829 30.7253 127.426 30.9099 126.999 30.9302C126.641 30.8793 126.289 30.7894 125.95 30.662C125.477 30.4975 124.981 30.4071 124.481 30.3937C123.968 30.3704 123.464 30.5321 123.061 30.8493C122.657 31.213 122.362 31.6817 122.209 32.2033C121.986 32.8942 121.843 33.6085 121.784 34.3321C121.715 35.1624 121.681 36.1715 121.681 37.3594Z" fill="black"/>
<path d="M144.416 35.0283C144.426 36.1381 144.239 37.2409 143.864 38.2854C143.519 39.2395 142.976 40.11 142.272 40.8401C141.569 41.5599 140.719 42.1204 139.781 42.4836C138.741 42.8775 137.636 43.0711 136.524 43.0541C135.421 43.0779 134.325 42.8877 133.294 42.4942C132.356 42.1219 131.507 41.5545 130.805 40.8297C130.102 40.1049 129.561 39.2391 129.218 38.2897C128.487 36.1716 128.487 33.87 129.218 31.752C129.557 30.7987 130.095 29.9281 130.795 29.1973C131.499 28.4823 132.349 27.9269 133.286 27.5688C135.38 26.8023 137.678 26.8023 139.772 27.5688C140.717 27.9316 141.572 28.4947 142.278 29.2194C142.985 29.9441 143.526 30.8132 143.864 31.7669C144.239 32.8129 144.426 33.9171 144.416 35.0283ZM140.447 35.0283C140.447 33.4146 140.093 32.1593 139.383 31.2623C139.048 30.8271 138.615 30.4779 138.118 30.2439C137.622 30.0099 137.077 29.8978 136.528 29.9169C135.802 29.9025 135.089 30.1121 134.487 30.5172C133.865 30.9586 133.39 31.5764 133.124 32.2906C132.79 33.1638 132.628 34.0935 132.647 35.0283C132.629 35.9524 132.791 36.8712 133.122 37.7341C133.388 38.4449 133.856 39.0622 134.47 39.5095C135.075 39.9264 135.797 40.1416 136.532 40.1248C137.082 40.1436 137.629 40.0305 138.126 39.7949C138.624 39.5594 139.057 39.2082 139.391 38.7708C140.097 37.8682 140.449 36.6207 140.447 35.0283Z" fill="black"/>
<path d="M156.041 34.4343H152.103V40.442C152.103 41.302 151.901 41.9542 151.496 42.3984C151.301 42.602 151.067 42.7651 150.809 42.8784C150.55 42.9917 150.272 43.0529 149.99 43.0587C149.708 43.0644 149.427 43.0145 149.165 42.9118C148.902 42.8091 148.662 42.6556 148.458 42.4601L148.396 42.3984C148.006 41.9641 147.811 41.3219 147.811 40.4718V24.1094C147.811 23.1642 148.028 22.4886 148.462 22.0827C148.897 21.6768 149.587 21.4738 150.534 21.4738H156.05C157.682 21.4738 158.937 21.5995 159.816 21.8507C160.651 22.0718 161.424 22.4835 162.074 23.0535C162.707 23.6171 163.2 24.3205 163.514 25.1078C163.848 25.981 164.01 26.9107 163.99 27.8455C163.99 30.0084 163.324 31.647 161.991 32.7611C160.659 33.8752 158.675 34.4329 156.041 34.4343ZM155 24.7033H152.103V31.19H155C155.858 31.2094 156.713 31.1025 157.54 30.8728C158.158 30.7018 158.705 30.336 159.098 29.8296C159.477 29.2719 159.664 28.6063 159.633 27.9328C159.666 27.0918 159.371 26.2707 158.809 25.6443C158.19 25.017 156.92 24.7033 155 24.7033Z" fill="black"/>
<path d="M178.558 40.2972L177.545 37.634H168.914L167.901 40.3654C167.505 41.4255 167.167 42.1423 166.888 42.5155C166.609 42.8881 166.149 43.0733 165.513 43.0711C165.246 43.0722 164.982 43.0204 164.736 42.9189C164.49 42.8173 164.266 42.6679 164.078 42.4793C163.885 42.3111 163.73 42.1041 163.623 41.8719C163.516 41.6397 163.459 41.3875 163.456 41.1318C163.458 40.8267 163.507 40.5237 163.601 40.2334C163.697 39.9254 163.856 39.4996 164.078 38.9561L169.508 25.1717C169.662 24.7757 169.849 24.301 170.066 23.7454C170.248 23.2609 170.481 22.797 170.76 22.3616C171.01 21.993 171.342 21.6882 171.731 21.4717C172.189 21.2293 172.703 21.1118 173.221 21.1311C173.739 21.1141 174.252 21.2315 174.711 21.4717C175.097 21.6871 175.429 21.987 175.682 22.3488C175.93 22.7085 176.139 23.0939 176.304 23.4984C176.474 23.9093 176.687 24.4585 176.942 25.1419L182.477 38.8411C182.912 39.8828 183.129 40.64 183.129 41.1126C183.124 41.3684 183.068 41.6205 182.962 41.8534C182.856 42.0863 182.703 42.295 182.514 42.4666C182.321 42.6658 182.089 42.8232 181.832 42.9291C181.576 43.0349 181.301 43.0869 181.023 43.0818C180.724 43.0901 180.427 43.0289 180.155 42.903C179.917 42.7863 179.709 42.6174 179.546 42.4091C179.331 42.1133 179.154 41.7923 179.018 41.4532C178.848 41.0118 178.694 40.6265 178.558 40.2972ZM170.043 34.4046H176.385L173.191 25.6443L170.043 34.4046Z" fill="black"/>
<path d="M189.173 40.442V33.7105L183.989 25.6762C183.635 25.1275 183.313 24.5589 183.024 23.9731C182.856 23.6423 182.76 23.2794 182.743 22.9087C182.742 22.6673 182.792 22.4284 182.89 22.208C182.988 21.9877 183.133 21.791 183.314 21.6313C183.696 21.273 184.204 21.0801 184.728 21.0949C185.315 21.0949 185.761 21.2616 186.067 21.5952C186.576 22.2203 187.033 22.886 187.433 23.5856L191.402 30.0297L195.412 23.5856L196.021 22.5872C196.183 22.3265 196.363 22.0781 196.562 21.8442C196.743 21.6213 196.967 21.4368 197.22 21.3014C197.495 21.1679 197.798 21.1029 198.103 21.1119C198.353 21.1048 198.601 21.1479 198.834 21.2386C199.066 21.3293 199.278 21.4657 199.457 21.6399C199.627 21.7953 199.763 21.9843 199.857 22.195C199.95 22.4057 199.999 22.6335 200 22.864C199.996 23.2568 199.902 23.6435 199.725 23.9944C199.444 24.5342 199.13 25.0561 198.784 25.557L193.462 33.7105V40.442C193.462 41.3205 193.259 41.9769 192.853 42.4111C192.448 42.8218 191.897 43.0547 191.32 43.0587C190.743 43.0627 190.188 42.8374 189.777 42.4324L189.756 42.4111C189.368 41.9896 189.173 41.3318 189.173 40.442Z" fill="black"/>
<path d="M51.991 1.47983C51.4862 1.03304 50.8959 0.693377 50.256 0.481391C47.6179 0.144853 44.9598 -0.0102091 42.3005 0.0172998H6.45471C4.35991 0.0172998 2.76113 0.490616 1.65838 1.43725C0.555634 2.38388 0.00283848 3.67468 0 5.30965C0 6.88642 0.530798 8.15593 1.59239 9.11818C2.65398 10.0804 4.27475 10.5615 6.45471 10.5615H20.3945V56.3831C20.3945 58.9945 20.9906 60.9453 22.1827 62.2354C23.3749 63.5255 24.9169 64.1712 26.8087 64.1726C28.6694 64.1726 30.1936 63.534 31.3688 62.2567C32.5439 60.9793 33.1315 59.0229 33.1315 56.381V38.5284L33.1868 36.2803V30.3599L33.1229 28.8995V10.5615H47.1862C49.3065 10.5445 50.901 10.0648 51.9697 9.12244C53.0597 8.16161 53.6047 6.8921 53.6047 5.31391C53.6047 3.73571 53.0668 2.45768 51.991 1.47983Z" fill="url(#paint0_linear_1066_3259)"/>
<path d="M65.9222 18.9511C65.9222 25.3746 63.9424 30.244 59.9827 33.5594C56.6489 36.3503 51.6014 38.6686 45.4085 39.3243C41.8278 39.7075 38.2641 40.2418 34.7366 40.9614L20.3838 43.8928L33.1229 28.8886H39.2008C42.2138 28.8886 44.7316 28.5729 46.754 27.9413C48.7764 27.3097 50.3163 26.2779 51.3736 24.8459C52.4338 23.4097 52.9646 21.5306 52.966 19.2087C52.966 16.427 52.1478 14.1605 50.5114 12.4091C49.7422 11.6257 48.6323 11.0083 47.1819 10.557H33.1314L43.7757 0L44.4314 0.014902C47.5438 0.014902 48.0675 0.170309 50.2581 0.478994C51.3484 0.622116 52.4274 0.84049 53.4876 1.13255C55.9628 1.7933 58.2524 3.01568 60.1786 4.70478C62.0647 6.37821 63.5318 8.47092 64.4618 10.8146C65.4326 13.2273 65.9194 15.9395 65.9222 18.9511Z" fill="url(#paint1_linear_1066_3259)"/>
<defs>
<linearGradient id="paint0_linear_1066_3259" x1="0" y1="32.095" x2="53.6047" y2="32.095" gradientUnits="userSpaceOnUse">
<stop stop-color="#FA01E4"/>
<stop offset="1" stop-color="#3E1CEB"/>
</linearGradient>
<linearGradient id="paint1_linear_1066_3259" x1="20.3838" y1="21.9464" x2="65.9222" y2="21.9464" gradientUnits="userSpaceOnUse">
<stop stop-color="#03EBFC"/>
<stop offset="1" stop-color="#213AEE"/>
</linearGradient>
</defs>
</svg>
