<svg width="25" height="25" viewBox="0 0 25 25" fill="none" xmlns="http://www.w3.org/2000/svg">
<g clip-path="url(#clip0_293_41)">
<path d="M12.4912 24.9966C9.35848 24.9966 6.22572 24.9966 3.08711 24.9966C2.30392 24.9966 2 24.697 2 23.9307C2 20.0358 2 16.1351 2 12.2402C2 11.5315 2.33315 11.2031 3.0462 11.2031C9.34679 11.2031 15.6474 11.2031 21.9538 11.2031C22.6669 11.2031 23.0058 11.5373 23.0058 12.2402C23.0058 16.1467 23.0058 20.0531 23.0058 23.9595C23.0058 24.6913 22.6902 25.0024 21.948 25.0024C18.7918 24.9966 15.6415 24.9966 12.4912 24.9966ZM6.16142 13.8074C5.8049 13.8074 5.44253 13.8074 5.086 13.8074C4.54244 13.8132 4.20345 14.1416 4.19761 14.6717C4.19176 15.0923 4.19176 15.5129 4.19761 15.9335C4.20345 16.4347 4.55413 16.792 5.06262 16.792C5.78736 16.7977 6.51211 16.792 7.23685 16.792C7.68105 16.792 8.01419 16.5442 8.09018 16.1121C8.18369 15.5993 8.14278 15.075 8.10771 14.5564C8.07849 14.1301 7.6226 13.7613 7.1784 13.8016C6.84525 13.8362 6.50042 13.8074 6.16142 13.8074ZM5.93933 21.9948C5.37824 21.9948 4.8113 22.0121 4.25021 21.989C3.96382 21.9775 3.7651 22.1849 3.75341 22.4154C3.74172 22.6401 3.95213 22.8475 4.22683 22.8475C5.37239 22.8533 6.51211 22.8533 7.65767 22.8475C7.93237 22.8475 8.14862 22.6401 8.13109 22.4154C8.1194 22.1792 7.91483 21.9717 7.63429 21.9833C7.06735 22.0121 6.50626 21.9948 5.93933 21.9948ZM12.0938 21.9948C11.521 21.9948 10.9541 21.9948 10.3813 21.9948C10.0598 21.9948 9.89034 22.1388 9.89034 22.4096C9.8845 22.6631 10.0832 22.8475 10.3755 22.8475C11.5035 22.8533 12.6257 22.8533 13.7537 22.8475C14.0518 22.8475 14.2563 22.6459 14.2505 22.3866C14.2388 22.1331 14.0693 21.989 13.7595 21.989C13.1984 21.9948 12.649 21.9948 12.0938 21.9948ZM17.7339 19.8053C17.7515 20.0012 17.7047 20.2029 17.7807 20.3988C17.8508 20.5832 17.9911 20.6811 18.1898 20.6811C18.3827 20.6869 18.5463 20.5947 18.5873 20.4218C18.6749 20.0473 18.6866 19.6555 18.5989 19.2753C18.5522 19.0736 18.4002 18.9584 18.1898 18.9641C17.9736 18.9699 17.8274 19.0851 17.769 19.2983C17.7164 19.4654 17.7515 19.6325 17.7339 19.8053ZM20.3874 19.863C20.3874 19.6901 20.3874 19.5576 20.3874 19.4251C20.3874 19.402 20.3816 19.3732 20.3757 19.3502C20.3231 19.1197 20.1536 18.9641 19.9374 18.9699C19.7036 18.9757 19.5575 19.1082 19.5166 19.3329C19.4581 19.6555 19.4756 19.9782 19.5166 20.3066C19.5458 20.5486 19.6919 20.6696 19.914 20.6811C20.1478 20.6984 20.2939 20.5716 20.3582 20.3469C20.4108 20.1741 20.3699 19.9955 20.3874 19.863ZM6.38937 19.8514C6.38937 19.7131 6.39521 19.6094 6.38937 19.5115C6.37183 19.1715 6.20818 18.9699 5.94517 18.9641C5.68216 18.9584 5.50097 19.16 5.48928 19.4942C5.4776 19.7708 5.4776 20.0473 5.52435 20.3239C5.55942 20.5544 5.70554 20.6581 5.92179 20.6754C6.13805 20.6926 6.30754 20.5486 6.3543 20.3354C6.39521 20.1683 6.39521 19.9897 6.38937 19.8514ZM16.8631 19.8169C16.8631 19.6901 16.8631 19.5633 16.8631 19.4366C16.8572 19.1485 16.7169 18.9814 16.4773 18.9641C16.2435 18.9468 16.0273 19.1082 16.0039 19.3674C15.9805 19.6786 15.9805 19.9897 15.9981 20.3008C16.0156 20.5313 16.2377 20.6926 16.4598 20.6869C16.6936 20.6754 16.8455 20.514 16.8572 20.249C16.8631 20.1049 16.8631 19.9609 16.8631 19.8169ZM4.61258 19.8226C4.61258 19.6728 4.61842 19.5173 4.61258 19.3674C4.60089 19.1427 4.47231 19.0102 4.25605 18.9699C4.05149 18.9296 3.83524 19.0563 3.78848 19.2695C3.70665 19.6382 3.70665 20.0185 3.78848 20.393C3.83524 20.6005 4.05733 20.7214 4.2619 20.6811C4.47815 20.635 4.60674 20.5025 4.61258 20.2778C4.61258 20.1222 4.61258 19.9724 4.61258 19.8226ZM7.26607 19.8284C7.26607 19.9782 7.26023 20.1338 7.26607 20.2836C7.27192 20.5083 7.4005 20.6465 7.6226 20.6811C7.85054 20.7099 8.04342 20.612 8.09018 20.3873C8.172 20.0185 8.172 19.6382 8.09018 19.2637C8.04342 19.0563 7.81547 18.9296 7.61675 18.9757C7.4005 19.0217 7.27192 19.1543 7.26607 19.379C7.26607 19.5288 7.26607 19.6786 7.26607 19.8284ZM9.8845 19.8053C9.8845 19.9551 9.87865 20.1107 9.8845 20.2605C9.89034 20.5083 10.0423 20.6696 10.2644 20.6869C10.4982 20.7042 10.732 20.5371 10.7437 20.2951C10.7612 19.9839 10.7612 19.6728 10.7437 19.3617C10.732 19.1312 10.4982 18.9526 10.2878 18.9699C10.0481 18.9872 9.89034 19.1543 9.87865 19.402C9.8845 19.5345 9.8845 19.6671 9.8845 19.8053ZM14.2446 19.8341C14.2446 19.6901 14.2505 19.5461 14.2446 19.4078C14.2388 19.1658 14.0693 18.9872 13.8414 18.9699C13.6309 18.9526 13.3972 19.1312 13.3855 19.3617C13.3679 19.6728 13.3679 19.9839 13.3855 20.2951C13.3972 20.5428 13.6193 20.7042 13.8589 20.6869C14.0927 20.6696 14.2388 20.5083 14.2505 20.2432C14.2446 20.1049 14.2446 19.9667 14.2446 19.8341ZM11.6321 19.8341C11.6321 19.9839 11.6204 20.1338 11.6379 20.2836C11.6554 20.514 11.8366 20.6754 12.0529 20.6811C12.2808 20.6869 12.4854 20.5255 12.4971 20.2893C12.5146 19.9782 12.5146 19.6671 12.4971 19.3617C12.4854 19.1485 12.275 18.9699 12.0704 18.9641C11.8542 18.9641 11.6496 19.1485 11.6321 19.379C11.6204 19.5288 11.6321 19.6786 11.6321 19.8341Z" fill="#FAFAFA"/>
<path d="M11.8319 3.4898C10.9201 3.57047 10.0785 3.87583 9.30114 4.34253C9.21931 4.38863 9.13749 4.43472 9.0615 4.48081C8.41274 3.5359 7.76398 2.59098 7.10938 1.64606C8.06791 0.966178 9.13749 0.516766 10.283 0.257489C12.9073 -0.324442 15.3738 0.0788766 17.6649 1.47897C17.7409 1.52506 17.8169 1.58844 17.887 1.6403C17.2382 2.58521 16.5895 3.53013 15.9407 4.47505C15.1984 4.02564 14.4152 3.67418 13.5444 3.53589C13.4216 3.51861 13.2931 3.50709 13.1645 3.4898C13.1236 3.44371 13.1177 3.38609 13.106 3.32847C13.0301 2.89058 12.9482 2.4527 12.8606 2.01481C12.8255 1.82467 12.6911 1.72672 12.4923 1.72672C12.2995 1.72672 12.1709 1.81891 12.1241 2.00905C12.1066 2.07242 12.0949 2.14156 12.0832 2.20494C11.9955 2.63707 11.9839 3.07496 11.8319 3.4898Z" fill="#EEC33C"/>
<path d="M15.9375 4.47538C16.5863 3.53046 17.235 2.58554 17.8838 1.64062C18.9709 2.33203 19.8418 3.23085 20.5431 4.29101C21.3964 5.5701 21.8932 6.98172 22.0686 8.5028C22.1329 9.03864 21.7588 9.46501 21.2094 9.47077C20.6542 9.47653 20.0989 9.47653 19.5437 9.47077C18.9417 9.47077 18.6319 9.20573 18.5442 8.61228C18.3923 7.57517 17.989 6.64178 17.3461 5.80633C16.9603 5.28778 16.4635 4.86717 15.9375 4.47538Z" fill="#FAFAFA"/>
<path d="M7.11134 1.64062C7.7601 2.58554 8.40886 3.53046 9.06347 4.47538C8.29781 5.0285 7.64905 5.68534 7.18147 6.5035C6.81326 7.15457 6.56194 7.84597 6.45673 8.58923C6.36906 9.20573 6.06514 9.47077 5.42807 9.47077C4.89035 9.47077 4.35264 9.47653 3.81493 9.47077C3.2363 9.46501 2.86809 9.03864 2.93822 8.474C3.1837 6.41707 3.99611 4.6079 5.41053 3.07529C5.91318 2.52793 6.46842 2.03818 7.11134 1.64062Z" fill="#FAFAFA"/>
<path d="M11.8314 3.49169C11.9833 3.07685 11.9892 2.63896 12.0885 2.2126C12.1061 2.14922 12.1178 2.08008 12.1294 2.0167C12.1762 1.82656 12.3048 1.73438 12.4977 1.73438C12.6964 1.73438 12.825 1.83232 12.8659 2.02246C12.9535 2.46035 13.0295 2.89824 13.1113 3.33613C13.123 3.39374 13.1289 3.45136 13.1698 3.49745C13.1698 3.9123 13.2867 4.30985 13.3451 4.71317C13.4562 5.46219 13.5906 6.21121 13.69 6.96599C13.7426 7.35779 13.7952 7.74382 13.8127 8.13562C13.8419 8.8155 13.3627 9.39167 12.6555 9.47233C11.8957 9.55876 11.2118 9.03444 11.1884 8.18171C11.1768 7.69197 11.2761 7.20222 11.3463 6.71248C11.4807 5.79637 11.6385 4.88026 11.7846 3.96991C11.808 3.80859 11.8606 3.65302 11.8314 3.49169Z" fill="#D5E7E7"/>
</g>
<defs>
<clipPath id="clip0_293_41">
<rect width="25" height="25" fill="white"/>
</clipPath>
</defs>
</svg>
