<svg width="26" height="25" viewBox="0 0 26 25" fill="none" xmlns="http://www.w3.org/2000/svg">
<g clip-path="url(#clip0_698_330)">
<path d="M16.2557 24.9998C16.1122 24.9998 16.0199 24.9998 15.9275 24.9998C13.1038 24.9998 10.28 25.0002 7.45578 24.9998C6.06807 24.9998 4.885 23.9197 4.71353 22.5152C4.64079 21.9198 4.71713 21.3546 4.96413 20.8134C5.0073 20.7186 5.0053 20.6332 4.98692 20.5389C4.32144 17.0937 3.65516 13.649 2.99608 10.2031C2.95851 10.0067 2.88936 9.94485 2.69112 9.95217C2.23228 9.96925 1.77224 9.95908 1.3126 9.95705C0.87374 9.95502 0.544798 9.63621 0.531608 9.20394C0.518819 8.7855 0.849759 8.42399 1.28382 8.41789C2.04282 8.40691 2.80223 8.40853 3.56163 8.41707C3.96731 8.42155 4.2403 8.67489 4.32024 9.08764C4.47931 9.91069 4.64159 10.7329 4.79347 11.5576C4.82065 11.704 4.86901 11.7528 5.02169 11.7524C9.68363 11.7475 14.346 11.7487 19.0079 11.7475C19.8197 11.7475 20.4556 12.312 20.5595 13.1175C20.5823 13.294 20.5463 13.3473 20.3641 13.3558C18.4396 13.4473 16.8412 14.2415 15.603 15.7372C14.4083 17.1799 13.9207 18.861 14.1026 20.7406C14.1078 20.7946 14.1058 20.85 14.1182 20.902C14.1405 20.9968 14.1022 21.0163 14.0166 21.0138C13.8168 21.0085 13.617 21.0122 13.4171 21.0122C11.2592 21.0122 9.10129 21.0175 6.94338 21.0049C6.69598 21.0033 6.56128 21.0862 6.43578 21.2887C6.07686 21.8678 6.13202 22.5916 6.59645 23.0857C6.84506 23.35 7.15002 23.4606 7.51094 23.4602C9.93504 23.4553 12.3595 23.4594 14.7836 23.4533C14.9427 23.4529 15.0326 23.5017 15.1158 23.6383C15.4187 24.1345 15.796 24.57 16.2557 24.9998Z" fill="white"/>
<path d="M15.7344 20.0137C15.7284 17.2957 17.9127 15.0436 20.561 15.0371C23.3212 15.0302 25.5303 17.2436 25.5327 20.0174C25.5351 22.7704 23.3456 24.9943 20.627 24.9996C17.9167 25.0053 15.7404 22.7874 15.7344 20.0137ZM23.4164 18.5701C23.414 18.5359 23.4148 18.4949 23.4076 18.455C23.3424 18.0919 23.1454 17.8345 22.7984 17.7186C22.4411 17.599 22.131 17.6999 21.8684 17.967C21.1769 18.6709 20.4835 19.3732 19.7956 20.0812C19.7041 20.1751 19.6541 20.1804 19.5634 20.0808C19.3551 19.8527 19.1349 19.6355 18.9163 19.418C18.5566 19.0597 18.0318 19.0507 17.6777 19.3931C17.3175 19.7412 17.2948 20.2955 17.6469 20.6672C18.1133 21.1596 18.5893 21.6427 19.0722 22.1185C19.4223 22.4633 19.9507 22.4646 20.2976 22.1157C21.2537 21.1543 22.2009 20.1837 23.1506 19.215C23.322 19.0402 23.4084 18.8247 23.4164 18.5701Z" fill="white"/>
<path d="M6.07351 5.96334C6.07351 4.57423 6.07271 3.18512 6.07391 1.796C6.07431 1.15878 6.58671 0.824926 7.15307 1.09453C7.64708 1.32958 8.14029 1.56706 8.63031 1.81024C8.73223 1.86066 8.80977 1.85659 8.90609 1.79885C9.2726 1.57845 9.64751 1.37187 10.012 1.14821C10.3234 0.957494 10.6195 0.958714 10.9333 1.14577C11.3062 1.36821 11.6931 1.56625 12.0672 1.78746C12.1823 1.85537 12.2655 1.84561 12.3758 1.78299C12.7827 1.55283 13.1967 1.33527 13.6052 1.10836C13.8754 0.958307 14.1368 0.964813 14.4006 1.12341C14.7787 1.35032 15.1616 1.5695 15.5381 1.80007C15.6296 1.85619 15.7024 1.85781 15.7955 1.81186C16.2683 1.57845 16.7531 1.36821 17.2156 1.11568C17.7971 0.798087 18.3667 1.18806 18.3623 1.83707C18.3423 4.63522 18.3523 7.43378 18.3575 10.2323C18.3579 10.3873 18.3159 10.4275 18.168 10.4235C17.8155 10.4133 17.4618 10.4113 17.1093 10.4255C16.9414 10.4324 16.9138 10.3665 16.9142 10.2153C16.9182 7.87093 16.917 5.52619 16.9174 3.18186C16.9174 3.13428 16.9146 3.08671 16.9178 3.03954C16.9262 2.91917 16.8858 2.89802 16.7799 2.9517C16.5357 3.07532 16.2847 3.18471 16.0421 3.31077C15.7423 3.46652 15.4602 3.45472 15.1724 3.27376C14.827 3.05702 14.4701 2.85939 14.1232 2.64509C14.0185 2.58043 13.9349 2.58328 13.8306 2.64183C13.4341 2.86386 13.0309 3.07288 12.6356 3.29694C12.3474 3.46042 12.0728 3.46286 11.7854 3.29491C11.4105 3.07573 11.0248 2.87566 10.6507 2.65485C10.5232 2.57962 10.4285 2.58734 10.3058 2.66217C9.94608 2.88094 9.57597 3.08223 9.21505 3.29857C8.95725 3.4531 8.70345 3.46245 8.43646 3.32866C8.17986 3.20016 7.91727 3.08427 7.66187 2.95292C7.52997 2.88501 7.50519 2.92771 7.50639 3.05865C7.51079 3.51247 7.50839 3.96669 7.50839 4.42051C7.50839 6.34478 7.50639 8.26944 7.51199 10.1937C7.51238 10.3633 7.48361 10.4344 7.29655 10.4255C6.95083 10.4088 6.6039 10.4129 6.25777 10.4243C6.10589 10.4296 6.06992 10.3828 6.07032 10.2315C6.07591 8.80907 6.07351 7.3862 6.07351 5.96334Z" fill="white"/>
<path d="M13.3833 6.54614C12.8373 6.54614 12.2909 6.54736 11.745 6.54573C11.3693 6.54451 11.0923 6.2871 11.0823 5.93494C11.0723 5.57547 11.3509 5.28675 11.7322 5.28471C12.8377 5.27983 13.9432 5.28024 15.0488 5.28512C15.4213 5.28675 15.6867 5.56164 15.6883 5.92274C15.6899 6.27734 15.4153 6.5441 15.0416 6.54573C14.4888 6.54776 13.9361 6.54614 13.3833 6.54614Z" fill="white"/>
<path d="M13.389 8.27405C13.9286 8.27405 14.4678 8.27243 15.0074 8.27446C15.4095 8.27609 15.6776 8.5213 15.6832 8.88687C15.6892 9.26994 15.4242 9.5371 15.0202 9.53873C13.9278 9.54239 12.8355 9.54239 11.7435 9.53832C11.383 9.5371 11.1392 9.32117 11.0884 8.98081C11.0461 8.69534 11.2171 8.41638 11.4953 8.30862C11.5857 8.27365 11.678 8.27405 11.7707 8.27405C12.3099 8.27365 12.8495 8.27405 13.389 8.27405Z" fill="white"/>
<path d="M8.7461 8.89522C8.7477 8.48166 9.05946 8.16529 9.46674 8.16407C9.87642 8.16285 10.201 8.49589 10.1962 8.9123C10.1918 9.3222 9.87202 9.64467 9.47034 9.64467C9.05666 9.64467 8.7441 9.3218 8.7461 8.89522Z" fill="white"/>
<path d="M9.46159 5.18363C9.86887 5.17997 10.1882 5.49308 10.1958 5.90339C10.2034 6.32143 9.88406 6.65732 9.47558 6.66057C9.0691 6.66383 8.75015 6.34786 8.74615 5.93755C8.74135 5.50447 9.04272 5.18729 9.46159 5.18363Z" fill="white"/>
</g>
<defs>
<clipPath id="clip0_698_330">
<rect width="25" height="25" fill="white" transform="translate(0.53125)"/>
</clipPath>
</defs>
</svg>
