<svg width="25" height="25" viewBox="0 0 25 25" fill="none" xmlns="http://www.w3.org/2000/svg">
<path d="M12.4946 20.0047C11.1826 19.9819 9.8939 19.8677 8.6521 19.4569C8.37093 19.3656 8.1132 19.2515 7.85547 19.1145C7.26972 18.795 6.96512 18.2928 6.89483 17.6538C6.70739 16.3299 6.89483 15.0974 7.71489 14.0247C8.41779 13.1117 9.355 12.5182 10.4796 12.1987C12.5181 11.6281 14.4862 11.8335 16.2435 13.0432C17.3916 13.8421 18.0242 14.9605 18.1413 16.3299C18.1882 16.9006 18.1413 17.4483 18.0242 17.9961C17.907 18.5439 17.5321 18.8863 17.0635 19.1374C16.4075 19.5025 15.6811 19.6851 14.9314 19.7993C14.1113 19.9362 13.3147 20.0047 12.4946 20.0047Z" fill="white"/>
<path d="M16.2619 7.56653C16.3556 9.55227 14.7155 11.2641 12.6302 11.3554C10.5918 11.4695 8.81107 9.87181 8.71735 7.93173C8.6002 5.92317 10.0997 4.12003 12.2553 4.00591C14.4343 3.89178 16.1681 5.44385 16.2619 7.56653Z" fill="white"/>
<path d="M4.29117 17.5645C3.33053 17.5417 2.29961 17.4504 1.29211 17.108C0.448622 16.8341 0.0503091 16.2635 0.00344876 15.3962C-0.0668418 13.593 0.940656 12.1323 2.72135 11.6073C4.36146 11.128 5.90785 11.2878 7.31366 12.2921C7.52454 12.4518 7.71198 12.6572 7.87599 12.8398C7.94628 12.9083 7.94628 12.9768 7.87599 13.0453C6.68105 14.1865 6.18902 15.5788 6.28274 17.1993C6.28274 17.3591 6.25931 17.4047 6.09529 17.4276C5.53297 17.5189 4.94722 17.5645 4.29117 17.5645Z" fill="white"/>
<path d="M20.6493 17.5644C20.0635 17.5644 19.4778 17.5188 18.892 17.4275C18.7514 17.4275 18.7046 17.3818 18.7046 17.2221C18.7749 16.0352 18.5406 14.9168 17.8611 13.9353C17.6502 13.6386 17.4393 13.3419 17.1582 13.1137C17.041 12.9995 17.041 12.9311 17.1582 12.8169C17.7205 12.155 18.4468 11.7442 19.2903 11.5388C20.6727 11.1736 21.9848 11.3105 23.2266 12.0409C24.5621 12.8169 25.1947 14.2777 24.937 15.8069C24.8198 16.4004 24.4918 16.7884 23.9529 17.0166C23.3906 17.2677 22.758 17.4047 22.1488 17.4731C21.6568 17.5416 21.1647 17.5644 20.6493 17.5644Z" fill="white"/>
<path d="M7.24067 8.13884C7.24067 9.71373 5.92859 10.9919 4.3119 10.9919C2.74208 10.9919 1.40656 9.6909 1.42999 8.13884C1.42999 6.58677 2.74208 5.30859 4.33533 5.30859C5.95202 5.30859 7.24067 6.56394 7.24067 8.13884Z" fill="white"/>
<path d="M23.5532 8.16166C23.5532 9.73655 22.2411 10.9919 20.601 10.9919C19.0312 10.9919 17.7191 9.6909 17.7425 8.13884C17.7425 6.56394 19.0546 5.30859 20.6947 5.30859C22.288 5.30859 23.5766 6.58677 23.5532 8.16166Z" fill="white"/>
</svg>
