<svg width="25" height="25" viewBox="0 0 25 25" fill="none" xmlns="http://www.w3.org/2000/svg">
<g clip-path="url(#clip0_292_22)">
<path d="M0.00784343 5.58828C0.0171828 2.959 2.1329 0.85645 4.75582 0.867229C7.38737 0.878007 9.488 3.00715 9.47507 5.64936C9.46286 8.24701 7.31265 10.3488 4.68039 10.3359C2.10561 10.323 -0.00149592 8.18234 0.00784343 5.58828ZM4.76876 5.1715C4.58987 5.1715 4.41027 5.18156 4.23138 5.16935C3.79028 5.13845 3.44688 4.75257 3.44903 4.30346C3.45119 3.84501 3.79172 3.47207 4.24216 3.4541C4.56401 3.44117 4.88658 3.44692 5.20914 3.45195C5.55757 3.4577 5.85715 3.63016 5.9333 3.94633C6.02669 4.33508 6.25515 4.33149 6.54251 4.30849C6.58706 4.3049 6.63232 4.30346 6.67686 4.30849C6.8385 4.32861 6.89525 4.28406 6.86652 4.10226C6.75373 3.39015 6.36004 2.92379 5.68904 2.67373C5.51878 2.6105 5.26662 2.67876 5.18687 2.52211C5.11072 2.37265 5.15526 2.15348 5.17107 1.96665C5.18615 1.78198 5.13227 1.72377 4.93902 1.72593C4.31903 1.7324 4.314 1.72377 4.31903 2.34534C4.32047 2.50846 4.3061 2.58032 4.10494 2.60906C3.19472 2.73768 2.58838 3.44979 2.59628 4.33795C2.60418 5.19737 3.23351 5.89511 4.13943 6.00721C4.49289 6.05104 4.85425 6.01942 5.21202 6.03308C5.6718 6.05032 6.0346 6.43332 6.0346 6.88818C6.0346 7.3416 5.66749 7.73538 5.21345 7.75119C4.8916 7.76269 4.56832 7.76341 4.24647 7.75047C3.85637 7.73467 3.52088 7.40771 3.45263 7.03549C3.41814 6.84579 3.56398 6.58063 3.35708 6.48219C3.18897 6.40242 2.95333 6.46494 2.74715 6.46422C2.73853 6.46422 2.72919 6.46494 2.72057 6.46422C2.63292 6.45488 2.60275 6.48578 2.59125 6.58135C2.4799 7.47167 2.99572 8.28294 3.83267 8.53803C3.99072 8.58618 4.21917 8.52151 4.29532 8.66738C4.36573 8.80175 4.32909 9.00152 4.31113 9.16894C4.28527 9.40751 4.35711 9.48799 4.60999 9.47793C5.16532 9.45637 5.17897 9.47147 5.16029 8.91601C5.15311 8.68534 5.21633 8.60055 5.45053 8.5675C6.24078 8.4554 6.79827 7.82521 6.87729 6.9895C6.94554 6.27236 6.45774 5.54013 5.74723 5.27857C5.42826 5.16001 5.09923 5.17078 4.76876 5.1715Z" fill="#FAFAFA"/>
<path d="M17.2167 15.3356C17.2167 16.0118 17.2232 16.7189 17.2124 17.426C17.2095 17.6056 17.2641 17.6466 17.4365 17.6458C18.0673 17.643 18.0673 17.6494 18.0673 17.0257C18.0673 16.4523 18.0673 15.8789 18.0673 15.2875C18.5652 15.7991 19.0508 16.2978 19.5365 16.7965C19.5659 16.7778 19.5947 16.7584 19.6241 16.739C19.7721 16.0104 19.9215 15.2824 20.0674 14.5538C20.1794 13.994 20.293 13.4343 20.3935 12.8723C20.4244 12.6977 20.4927 12.6596 20.6543 12.715C22.8232 13.4573 24.2349 14.9224 24.7873 17.1522C25.056 18.2379 25.0826 19.3561 24.7916 20.4476C24.3649 22.05 22.8225 23.2206 21.1615 23.2371C20.2032 23.2471 19.2448 23.2349 18.2864 23.2436C18.1126 23.245 18.058 23.2019 18.063 23.0237C18.0767 22.594 18.0752 22.1635 18.0637 21.7338C18.0594 21.5635 18.0996 21.5068 18.2814 21.5089C19.0515 21.5197 19.8217 21.519 20.5918 21.5118C21.867 21.5003 22.862 20.717 23.1551 19.489C23.2047 19.282 23.2226 19.0636 23.2248 18.8509C23.2327 18.0892 23.2234 17.3275 23.232 16.5665C23.2334 16.4063 23.1989 16.3538 23.0272 16.3524C22.3771 16.3481 22.3771 16.3409 22.3771 16.9984C22.3771 17.6343 22.3807 18.271 22.3763 18.9069C22.3699 19.9007 21.6155 20.6545 20.6249 20.6581C19.7829 20.661 18.9409 20.6552 18.0989 20.6617C17.9574 20.6631 17.8805 20.6222 17.8037 20.4979C17.5199 20.0365 17.091 19.8009 16.5522 19.8059C16.3553 19.808 16.3438 19.7319 16.3446 19.5759C16.3496 18.5728 16.3446 17.569 16.3503 16.5651C16.351 16.4164 16.3381 16.3136 16.2109 16.3431C16.5292 16.024 16.8755 15.6769 17.2167 15.3356ZM20.6593 18.072C20.7305 18.072 20.8023 18.072 20.8734 18.072C21.5437 18.072 21.5437 18.072 21.5085 17.3857C21.5078 17.3771 21.5078 17.3678 21.5085 17.3591C21.52 17.26 21.4841 17.2147 21.3763 17.2154C20.895 17.219 20.4136 17.2176 19.9323 17.2161C19.8554 17.2161 19.7922 17.2176 19.7958 17.3239C19.8051 17.5632 19.7355 17.8427 19.8382 18.0281C19.9115 18.1618 20.2175 18.0576 20.4194 18.0705C20.4984 18.0763 20.5789 18.072 20.6593 18.072Z" fill="#FAFAFA"/>
<path d="M11.1814 24.9615C9.838 24.9615 8.49529 24.9587 7.15186 24.9651C6.96076 24.9658 6.85085 24.945 6.8803 24.7129C6.90329 24.5275 6.82283 24.299 6.90545 24.1596C7.00028 24.0001 7.24669 24.1165 7.42557 24.0906C8.08005 23.9965 8.52043 23.574 8.58796 22.9157C8.62748 22.5256 8.63466 22.1282 8.5736 21.7366C8.4802 21.1365 7.9845 20.6932 7.3796 20.6616C7.13965 20.6486 6.8882 20.4043 6.88677 20.1535C6.88102 19.2223 6.88677 18.2903 6.88174 17.359C6.88102 17.2354 6.927 17.211 7.03835 17.2117C7.79915 17.2153 8.56066 17.2174 9.32146 17.211C9.46586 17.2095 9.47592 17.2756 9.4752 17.3899C9.47089 17.8376 9.48167 18.286 9.46946 18.7336C9.46443 18.9039 9.51903 18.9406 9.68139 18.9391C10.6843 18.9312 11.6872 18.9305 12.6901 18.9399C12.8754 18.9413 12.9128 18.8781 12.9085 18.7099C12.8984 18.2716 12.9099 17.8318 12.902 17.3935C12.8992 17.2548 12.9351 17.2102 13.0795 17.2117C13.8223 17.2189 14.5659 17.2196 15.3094 17.211C15.4689 17.2095 15.4984 17.2663 15.4976 17.4107C15.4919 18.3068 15.4962 19.2021 15.4941 20.0982C15.4933 20.3943 15.257 20.6443 14.9711 20.663C14.3144 20.7061 13.7871 21.258 13.7756 21.9198C13.7706 22.1885 13.7735 22.4573 13.7749 22.726C13.7771 23.5445 14.313 24.0863 15.1298 24.0978C15.4948 24.1028 15.4948 24.1028 15.4948 24.4628C15.4948 24.9637 15.4948 24.9637 14.9962 24.9637C13.7246 24.9615 12.453 24.9615 11.1814 24.9615Z" fill="#FAFAFA"/>
<path d="M14.6256 6.36814C14.6256 5.76813 14.6235 5.16812 14.6271 4.56811C14.6278 4.42511 14.6285 4.27924 14.6601 4.14128C14.6874 4.02271 14.7305 3.86319 14.8182 3.81289C14.9446 3.74103 14.9971 3.92858 15.0854 3.9954C15.2449 4.11541 15.4109 4.23397 15.6056 4.25625C16.3362 4.33817 17.069 4.35829 17.7953 4.22391C18.217 4.14559 18.6035 3.95588 18.8944 3.64905C19.1207 3.4112 19.3664 3.42054 19.6265 3.46941C20.1948 3.57576 20.6445 4.10535 20.6495 4.68955C20.6596 5.88957 20.6711 7.09031 20.6452 8.28962C20.6222 9.39551 19.6595 10.3282 18.5561 10.3282C17.8147 10.3282 17.0675 10.4116 16.3326 10.2794C15.3821 10.1083 14.6666 9.26904 14.6357 8.30183C14.6149 7.65799 14.6321 7.01199 14.6321 6.36743C14.6307 6.36814 14.6278 6.36814 14.6256 6.36814ZM16.3498 7.75428C16.278 7.75428 16.2054 7.76362 16.135 7.75284C15.9525 7.72482 15.9051 7.80027 15.9303 7.97344C16.0481 8.79693 16.7299 9.4185 17.5776 9.46736C18.3513 9.51192 19.1057 8.94209 19.3011 8.16602C19.4045 7.755 19.4045 7.755 18.9871 7.755C18.9153 7.755 18.8427 7.76362 18.7723 7.75356C18.5841 7.72482 18.5036 7.79308 18.4548 7.98782C18.3542 8.39022 18.0015 8.6295 17.5984 8.61513C17.2105 8.60148 16.8613 8.31549 16.7952 7.91811C16.7708 7.76937 16.7119 7.74637 16.5905 7.75428C16.5115 7.75859 16.4303 7.75428 16.3498 7.75428ZM15.9224 6.02538C16.1501 6.02107 16.3498 5.81125 16.3412 5.5849C16.3333 5.36717 16.1401 5.17746 15.9224 5.17459C15.6875 5.171 15.4956 5.36142 15.4956 5.59855C15.4949 5.82993 15.6939 6.02969 15.9224 6.02538ZM19.3679 5.17459C19.1337 5.16812 18.939 5.35639 18.9354 5.5928C18.9318 5.82634 19.1272 6.0261 19.3571 6.02538C19.5741 6.02466 19.7687 5.83568 19.7802 5.61651C19.7917 5.39016 19.5963 5.18106 19.3679 5.17459Z" fill="#FAFAFA"/>
<path d="M17.8424 0.0100509C18.3553 0.0409497 19.0651 -0.0610881 19.767 0.0646628C21.3231 0.343471 22.4596 1.795 22.336 3.37012C22.2894 3.96582 22.1845 4.5572 22.1133 5.15147C22.0997 5.26716 22.0666 5.26572 21.9625 5.24344C21.5314 5.15218 21.53 5.15865 21.507 4.72032C21.4524 3.67048 20.8073 2.88076 19.8022 2.65369C19.6643 2.6228 19.6305 2.60555 19.6707 2.45321C19.8669 1.70948 19.8482 1.69439 19.0931 1.7296C18.989 1.73463 18.9487 1.74829 18.9286 1.86973C18.7569 2.91382 18.1082 3.45275 17.0435 3.45275C16.685 3.45275 16.3273 3.45563 15.9688 3.45203C15.6735 3.44844 15.4953 3.2846 15.4925 3.02448C15.4889 2.76004 15.6599 2.59908 15.958 2.5883C16.0205 2.58615 16.0844 2.57968 16.1455 2.58902C16.3194 2.61561 16.3696 2.53513 16.3495 2.37632C16.3416 2.31453 16.3481 2.25129 16.3481 2.18806C16.3481 1.71883 16.3481 1.71883 15.8833 1.7332C15.3531 1.74972 14.8804 2.08961 14.708 2.60052C14.6677 2.71908 14.6095 2.79741 14.5154 2.8743C14.0384 3.26377 13.7934 3.77108 13.7783 4.38762C13.7755 4.49469 13.7776 4.60247 13.7776 4.71026C13.7776 5.18596 13.7302 5.23338 13.2604 5.26716C13.1878 5.27219 13.1576 5.24919 13.1526 5.18883C13.075 4.31217 12.7955 3.4506 12.9708 2.55381C13.2474 1.13965 14.5176 0.0474169 15.958 0.0129253C16.5219 -0.00144628 17.0866 0.0100509 17.8424 0.0100509Z" fill="#FAFAFA"/>
<path d="M13.1459 16.3601C12.4116 16.3601 11.6774 16.3558 10.9432 16.3637C10.765 16.3658 10.7262 16.3328 10.8031 16.1596C11.5682 14.4314 12.8585 13.2946 14.6516 12.7191C14.7608 12.6838 14.8348 12.6644 14.8672 12.8355C15.0834 13.9564 15.314 15.0746 15.5446 16.1927C15.577 16.35 15.5044 16.3637 15.3758 16.363C14.6322 16.3579 13.8887 16.3601 13.1459 16.3601Z" fill="#FAFAFA"/>
<path d="M0.00735783 22.3758C0.00735783 22.0172 0.0116683 21.6587 0.0052026 21.3008C0.00304736 21.1686 0.0245997 21.1169 0.180495 21.1312C1.4995 21.2484 2.81922 21.3569 4.13894 21.4611C4.274 21.4718 4.32214 21.5042 4.31998 21.6465C4.31136 22.1301 4.31567 22.6144 4.31711 23.098C4.31711 23.2015 4.32214 23.2827 4.17343 23.2941C2.87166 23.3969 1.5699 23.5047 0.26886 23.6189C0.0684228 23.6362 -0.0127577 23.5945 0.00161054 23.371C0.0231629 23.0405 0.00735783 22.7078 0.00735783 22.3758Z" fill="#FAFAFA"/>
<path d="M16.037 23.2421C15.7238 23.2421 15.4106 23.2457 15.0981 23.2407C14.8042 23.2356 14.6426 23.0883 14.6325 22.8038C14.6225 22.5178 14.6225 22.2311 14.6325 21.9451C14.6426 21.672 14.8014 21.496 15.0772 21.5254C15.5543 21.5764 15.8783 21.4651 16.0457 20.9628C16.1355 20.6926 16.4458 20.6028 16.7246 20.6696C16.9537 20.7242 17.2088 21.0023 17.2131 21.2502C17.2246 21.8675 17.2138 22.4847 17.2195 23.1027C17.221 23.232 17.1606 23.2457 17.0572 23.2443C16.7174 23.2399 16.3776 23.2421 16.037 23.2421Z" fill="#FAFAFA"/>
<path d="M6.31502 23.2417C5.99317 23.2417 5.67132 23.236 5.35019 23.2446C5.21729 23.2482 5.16197 23.2209 5.16412 23.0714C5.17274 22.4815 5.16412 21.8915 5.16915 21.3016C5.17131 21.0127 5.39833 20.7289 5.65695 20.6692C5.95725 20.5995 6.24892 20.703 6.36171 21.0113C6.51977 21.4446 6.7863 21.5689 7.22525 21.5251C7.60457 21.487 7.754 21.668 7.75615 22.0539C7.75759 22.2954 7.7619 22.5368 7.75471 22.7783C7.74609 23.0707 7.57511 23.2367 7.28056 23.2417C6.958 23.246 6.63615 23.2417 6.31502 23.2417Z" fill="#FAFAFA"/>
<path d="M19.3381 24.9629C18.4164 24.9629 17.4939 24.9593 16.5722 24.9665C16.407 24.9679 16.343 24.9377 16.3438 24.7516C16.3459 24.097 16.3373 24.097 16.9875 24.097C18.2404 24.097 19.494 24.0963 20.7469 24.097C21.2304 24.0977 21.7117 24.0783 22.1823 23.9504C22.3195 23.913 22.3942 23.9274 22.382 24.1035C22.3633 24.3787 22.4711 24.7408 22.3339 24.9075C22.1902 25.0814 21.8145 24.9571 21.5407 24.96C20.8065 24.9672 20.0723 24.9629 19.3381 24.9629Z" fill="#FAFAFA"/>
<path d="M17.6422 13.5207C17.2413 13.0213 16.8613 12.5485 16.4827 12.0749C16.3893 11.9578 16.4281 11.3319 16.5308 11.2134C16.5739 11.1645 16.6285 11.1832 16.6795 11.1832C17.3225 11.1832 17.9648 11.1854 18.6078 11.181C18.7134 11.1803 18.7694 11.1961 18.7838 11.3183C18.8024 11.4764 18.8499 11.6316 18.88 11.789C18.8966 11.8766 18.8973 11.9578 18.8312 12.0383C18.4382 12.5219 18.0503 13.0105 17.6422 13.5207Z" fill="#FAFAFA"/>
<path d="M11.1742 18.0785C10.9422 18.0785 10.7094 18.0727 10.4781 18.0806C10.3595 18.0849 10.3136 18.0425 10.3287 17.9283C10.3301 17.9197 10.3294 17.9103 10.3287 17.9017C10.3014 17.214 10.3014 17.214 10.9838 17.214C11.2877 17.214 11.5909 17.2198 11.8948 17.2112C12.0227 17.2076 12.0564 17.2485 12.0615 17.3764C12.0909 18.0785 12.0952 18.0785 11.3883 18.0785C11.3172 18.0785 11.2453 18.0785 11.1742 18.0785Z" fill="#FAFAFA"/>
<path d="M19.0988 15.0677C18.805 14.7716 18.5499 14.5115 18.2899 14.2557C18.2238 14.191 18.2302 14.1458 18.2856 14.0768C18.7044 13.5572 19.1189 13.0341 19.5342 12.5117C19.5564 12.5189 19.5787 12.5254 19.6017 12.5326C19.4372 13.3618 19.2727 14.191 19.0988 15.0677Z" fill="#FAFAFA"/>
<path d="M15.7272 12.4922C15.9147 12.7257 16.1015 12.9593 16.289 13.1928C16.5174 13.4788 16.7437 13.7662 16.9765 14.0486C17.0426 14.1291 17.0677 14.1808 16.9772 14.2671C16.7208 14.5135 16.4743 14.7715 16.1812 15.0676C16.0045 14.1887 15.8385 13.3595 15.6719 12.531C15.6906 12.5181 15.7085 12.5051 15.7272 12.4922Z" fill="#FAFAFA"/>
<path d="M13.7803 6.90612C13.7803 7.13894 13.7724 7.37247 13.7832 7.60457C13.7896 7.74973 13.7279 7.76697 13.6079 7.7447C13.235 7.67499 12.9275 7.31714 12.9146 6.93055C12.9002 6.51162 13.1682 6.14371 13.5547 6.04742C13.7178 6.00646 13.8019 6.03448 13.7853 6.23497C13.7659 6.45701 13.7803 6.68192 13.7803 6.90612Z" fill="#FAFAFA"/>
<path d="M21.5112 6.88101C21.5112 6.64891 21.5191 6.41681 21.5083 6.18543C21.5012 6.041 21.5665 6.02375 21.6836 6.04028C22.0579 6.09345 22.3862 6.49873 22.3798 6.90473C22.3733 7.31072 22.0349 7.70091 21.6571 7.75121C21.527 7.76846 21.5076 7.71241 21.5098 7.6039C21.5148 7.36246 21.5112 7.12174 21.5112 6.88101Z" fill="#FAFAFA"/>
</g>
<defs>
<clipPath id="clip0_292_22">
<rect width="25" height="25" fill="white"/>
</clipPath>
</defs>
</svg>
